# xmcd CD database file generated by Grip 3.3.1
# 
# Track frame offsets:
#       150
#       29701
#       62571
#       89062
#       125238
#       143682
#       169836
#       193471
# 
# Disc length: 3114 seconds
# 
# Revision: 1
# Processed by: cddbd v1.5.2PL0 Copyright (c) Steve Scherf et al.
# Submitted via: Grip 3.3.1
# 
DISCID=7f0c2808
DTITLE=Zoe Rahman - Live with special guest Idris Rahman
DYEAR=2007
DGENRE=Jazz
TTITLE0=The stride - Abdullah Ibrahim
TTITLE1=Ha gente aqui - Mario Laginha
TTITLE2=Friday 13th - Joanne Brackeen
TTITLE3=Tuang Guru - Abdullah Ibrahim
TTITLE4=Muchhe Jaoa Dinguli - Hemant Mukherjee
TTITLE5=Harlem blues - Phineas Newborn
TTITLE6=Egyptian tune dance - Joanne Brackeen
TTITLE7=Last note - Zoe Rahman
EXTD=YEAR: 2007
EXTT0=
EXTT1=
EXTT2=
EXTT3=
EXTT4=
EXTT5=
EXTT6=
EXTT7=
PLAYORDER=
